<svg xmlns="http://www.w3.org/2000/svg" xmlns:xlink="http://www.w3.org/1999/xlink" width="500" zoomAndPan="magnify" viewBox="0 0 375 374.999991" height="500" preserveAspectRatio="xMidYMid meet" version="1.0"><defs><g/><clipPath id="8260568c85"><path d="M 0.078125 0 L 254 0 L 254 375 L 0.078125 375 Z M 0.078125 0 " clip-rule="nonzero"/></clipPath><clipPath id="ea5cf8f4c6"><rect x="0" width="254" y="0" height="375"/></clipPath><clipPath id="38be4e89f9"><path d="M 104 0 L 301.519531 0 L 301.519531 375 L 104 375 Z M 104 0 " clip-rule="nonzero"/></clipPath><clipPath id="ecc49eace8"><rect x="0" width="198" y="0" height="375"/></clipPath><clipPath id="8faa072efc"><rect x="0" width="302" y="0" height="375"/></clipPath></defs><g transform="matrix(1, 0, 0, 1, 28, 0)"><g clip-path="url(#8faa072efc)"><g clip-path="url(#8260568c85)"><g transform="matrix(1, 0, 0, 1, 0.000000000000003553, 0)"><g clip-path="url(#ea5cf8f4c6)"><g fill="#d9d9d9" fill-opacity="1"><g transform="translate(1.137303, 268.964393)"><g><path d="M 2.1875 -153.25 L 76.375 -153.25 C 71.03125 -151.789062 67.222656 -149.960938 64.953125 -147.765625 C 62.679688 -145.578125 61.546875 -142.617188 61.546875 -138.890625 C 61.546875 -135.484375 62.273438 -131.347656 63.734375 -126.484375 L 83.921875 -47.921875 L 109.46875 -153.25 L 142.546875 -153.25 L 168.328125 -47.671875 L 188.28125 -126.484375 C 189.738281 -131.347656 190.46875 -135.484375 190.46875 -138.890625 C 190.46875 -142.617188 189.332031 -145.578125 187.0625 -147.765625 C 184.789062 -149.960938 180.976562 -151.789062 175.625 -153.25 L 249.8125 -153.25 C 242.519531 -151.132812 237.492188 -148.050781 234.734375 -144 C 231.972656 -139.945312 229.625 -134.109375 227.6875 -126.484375 L 196.0625 0 L 150.328125 0 L 126 -97.78125 L 101.671875 0 L 55.953125 0 L 24.328125 -126.484375 C 22.378906 -134.109375 20.023438 -139.945312 17.265625 -144 C 14.515625 -148.050781 9.488281 -151.132812 2.1875 -153.25 Z M 2.1875 -153.25 "/></g></g></g></g></g></g><g clip-path="url(#38be4e89f9)"><g transform="matrix(1, 0, 0, 1, 104, 0)"><g clip-path="url(#ecc49eace8)"><g fill="#d9d9d9" fill-opacity="1"><g transform="translate(1.448494, 234.999387)"><g><path d="M 8.515625 0 C 13.210938 -1.625 16.898438 -3.367188 19.578125 -5.234375 C 22.253906 -7.097656 24.160156 -9.8125 25.296875 -13.375 C 26.429688 -16.945312 27 -22.054688 27 -28.703125 L 27 -124.546875 C 27 -131.191406 26.429688 -136.296875 25.296875 -139.859375 C 24.160156 -143.429688 22.253906 -146.191406 19.578125 -148.140625 C 16.898438 -150.085938 13.210938 -151.789062 8.515625 -153.25 L 120.65625 -153.25 C 138.976562 -153.25 152.113281 -149.71875 160.0625 -142.65625 C 168.007812 -135.601562 171.984375 -125.1875 171.984375 -111.40625 C 171.984375 -97.132812 167.847656 -86.59375 159.578125 -79.78125 C 167.679688 -76.707031 173.597656 -72.003906 177.328125 -65.671875 C 181.054688 -59.347656 182.921875 -51.40625 182.921875 -41.84375 C 182.921875 -28.050781 178.945312 -17.628906 171 -10.578125 C 163.050781 -3.523438 149.914062 0 131.59375 0 Z M 65.4375 -63.25 L 65.4375 -26.515625 L 121.875 -26.515625 C 129.976562 -26.515625 135.734375 -28.015625 139.140625 -31.015625 C 142.546875 -34.015625 144.25 -38.515625 144.25 -44.515625 C 144.25 -50.835938 142.546875 -55.539062 139.140625 -58.625 C 135.734375 -61.707031 129.976562 -63.25 121.875 -63.25 Z M 65.4375 -90 L 110.921875 -90 C 119.023438 -90 124.78125 -91.539062 128.1875 -94.625 C 131.59375 -97.707031 133.296875 -102.410156 133.296875 -108.734375 C 133.296875 -114.734375 131.59375 -119.234375 128.1875 -122.234375 C 124.78125 -125.234375 119.023438 -126.734375 110.921875 -126.734375 L 65.4375 -126.734375 Z M 65.4375 -90 "/></g></g></g></g></g></g></g></g></svg>