<svg xmlns="http://www.w3.org/2000/svg" xmlns:xlink="http://www.w3.org/1999/xlink" width="500" zoomAndPan="magnify" viewBox="0 0 375 374.999991" height="500" preserveAspectRatio="xMidYMid meet" version="1.0"><defs><g/><clipPath id="926d261b85"><path d="M 0.160156 0 L 257 0 L 257 375 L 0.160156 375 Z M 0.160156 0 " clip-rule="nonzero"/></clipPath><clipPath id="14d4ae4b18"><rect x="0" width="257" y="0" height="375"/></clipPath><clipPath id="e4dd7c67da"><path d="M 104 0 L 303.519531 0 L 303.519531 375 L 104 375 Z M 104 0 " clip-rule="nonzero"/></clipPath><clipPath id="2c77a9746b"><rect x="0" width="200" y="0" height="375"/></clipPath><clipPath id="61c16f821a"><rect x="0" width="304" y="0" height="375"/></clipPath></defs><g transform="matrix(1, 0, 0, 1, 26, 0)"><g clip-path="url(#61c16f821a)"><g clip-path="url(#926d261b85)"><g><g clip-path="url(#14d4ae4b18)"><g fill="#000000" fill-opacity="1"><g transform="translate(0.704547, 268.98248)"><g><path d="M 2.1875 -153.25 L 81.734375 -153.25 C 76.703125 -151.625 73.128906 -149.632812 71.015625 -147.28125 C 68.910156 -144.9375 67.859375 -141.898438 67.859375 -138.171875 C 67.859375 -134.597656 68.59375 -130.378906 70.0625 -125.515625 L 86.359375 -57.890625 L 108.734375 -153.25 L 146.921875 -153.25 L 169.296875 -57.65625 L 185.59375 -125.515625 C 187.050781 -130.378906 187.78125 -134.597656 187.78125 -138.171875 C 187.78125 -141.898438 186.726562 -144.9375 184.625 -147.28125 C 182.519531 -149.632812 178.953125 -151.625 173.921875 -153.25 L 253.46875 -153.25 C 246.65625 -150.976562 241.828125 -147.691406 238.984375 -143.390625 C 236.148438 -139.097656 233.84375 -133.140625 232.0625 -125.515625 L 202.390625 0 L 148.375 0 L 127.703125 -86.359375 L 107.265625 0 L 53.265625 0 L 23.359375 -125.515625 C 21.566406 -133.140625 19.289062 -139.097656 16.53125 -143.390625 C 13.78125 -147.691406 9 -150.976562 2.1875 -153.25 Z M 2.1875 -153.25 "/></g></g></g></g></g></g><g clip-path="url(#e4dd7c67da)"><g transform="matrix(1, 0, 0, 1, 104, 0)"><g clip-path="url(#2c77a9746b)"><g fill="#000000" fill-opacity="1"><g transform="translate(1.241006, 235.017468)"><g><path d="M 8.265625 0 C 12.648438 -1.625 16.140625 -3.445312 18.734375 -5.46875 C 21.328125 -7.5 23.191406 -10.421875 24.328125 -14.234375 C 25.460938 -18.046875 26.03125 -23.351562 26.03125 -30.15625 L 26.03125 -123.078125 C 26.03125 -129.890625 25.460938 -135.203125 24.328125 -139.015625 C 23.191406 -142.828125 21.328125 -145.742188 18.734375 -147.765625 C 16.140625 -149.796875 12.648438 -151.625 8.265625 -153.25 L 123.578125 -153.25 C 142.378906 -153.25 155.832031 -149.679688 163.9375 -142.546875 C 172.050781 -135.410156 176.109375 -124.867188 176.109375 -110.921875 C 176.109375 -97.617188 172.378906 -87.320312 164.921875 -80.03125 C 172.546875 -76.789062 178.097656 -72.003906 181.578125 -65.671875 C 185.066406 -59.347656 186.8125 -51.566406 186.8125 -42.328125 C 186.8125 -28.378906 182.753906 -17.835938 174.640625 -10.703125 C 166.535156 -3.566406 153.082031 0 134.28125 0 Z M 71.515625 -61.546875 L 71.515625 -30.15625 L 122.84375 -30.15625 C 129.488281 -30.15625 134.269531 -31.453125 137.1875 -34.046875 C 140.113281 -36.648438 141.578125 -40.460938 141.578125 -45.484375 C 141.578125 -50.835938 140.113281 -54.851562 137.1875 -57.53125 C 134.269531 -60.207031 129.488281 -61.546875 122.84375 -61.546875 Z M 71.515625 -91.703125 L 111.890625 -91.703125 C 118.546875 -91.703125 123.289062 -93.039062 126.125 -95.71875 C 128.957031 -98.394531 130.375 -102.410156 130.375 -107.765625 C 130.375 -112.953125 128.957031 -116.800781 126.125 -119.3125 C 123.289062 -121.820312 118.546875 -123.078125 111.890625 -123.078125 L 71.515625 -123.078125 Z M 71.515625 -91.703125 "/></g></g></g></g></g></g></g></g></svg>